# AST/ASF file generated using VICON BodyLanguage
# -----------------------------------------------
:version 1.10
:name VICON
:units
  mass 1.0
  length 0.45
  angle deg
:documentation
   .ast/.asf automatically generated from VICON data using
   VICON BodyBuilder and BodyLanguage model FoxedUp or BRILLIANT.MOD
:root
   order TX TY TZ RX RY RZ
   axis XYZ
   position 0 0 0  
   orientation 0 0 0 
:bonedata
  begin
     id 1 
     name lhipjoint
     direction 0.575328 -0.747301 0.332475 
     length 2.40933 
     axis 0 0 0  XYZ
  end
  begin
     id 2 
     name lfemur
     direction 0.34202 -0.939693 0  
     length 7.31453  
     axis 0 0 20  XYZ
    dof rx ry rz
    limits (-160.0 20.0)
           (-70.0 70.0)
           (-60.0 70.0)
  end
  begin
     id 3 
     name ltibia
     direction 0.34202 -0.939693 0   
     length 7.82185   
     axis 0 0 20   XYZ
    dof rx
    limits (-10.0 170.0)
  end
  begin
     id 4 
     name lfoot
     direction 0.0795993 -0.218697 0.972541   
     length 2.19173   
     axis -90 7.62852e-016 20   XYZ
    dof rx rz
    limits (-45.0 90.0)
           (-70.0 20.0)
  end
  begin
     id 5 
     name ltoes
     direction 1.53537e-011 -4.21894e-011 1   
     length 1.10023   
     axis -90 7.62852e-016 20   XYZ
    dof rx
    limits (-90.0 20.0)
  end
  begin
     id 6 
     name rhipjoint
     direction -0.513884 -0.783789 0.348708   
     length 2.29716  
     axis 0 0 0  XYZ 
  end
  begin
     id 7 
     name rfemur
     direction -0.34202 -0.939693 0   
     length 7.59573   
     axis 0 0 -20   XYZ
    dof rx ry rz
    limits (-160.0 20.0)
           (-70.0 70.0)
           (-70.0 60.0)
  end
  begin
     id 8 
     name rtibia
     direction -0.34202 -0.939693 0   
     length 7.66402   
     axis 0 0 -20   XYZ
    dof rx
    limits (-10.0 170.0)
 end
 begin
     id 9 
     name rfoot
     direction -0.137793 -0.378584 0.915253   
     length 2.27056  
     axis -90 -7.62852e-016 -20   XYZ
    dof rx rz
    limits (-45.0 90.0)
           (-20.0 70.0)
  end
  begin
     id 10 
     name rtoes
     direction -1.53493e-011 -4.22159e-011 1   
     length 1.11766   
     axis -90 -7.62852e-016 -20   XYZ
    dof rx
    limits (-90.0 20.0)
  end
  begin
     id 11 
     name lowerback
     direction -0.00732775 0.998356 -0.05685   
     length 2.16513   
     axis 0 0 0   XYZ
    dof rx ry rz
    limits (-20.0 45.0)
           (-30.0 30.0)
           (-30.0 30.0)
  end
  begin
     id 12 
     name upperback
     direction 0.0218081 0.999627 -0.0164647   
     length 2.16755   
     axis 0 0 0   XYZ
    dof rx ry rz
    limits (-20.0 45.0)
           (-30.0 30.0)
           (-30.0 30.0)
  end
  begin
     id 13 
     name thorax
     direction 0.02365 0.999661 0.0108914   
     length 2.16932   
     axis 0 0 0   XYZ
    dof rx ry rz
    limits (-20.0 45.0)
           (-30.0 30.0)
           (-30.0 30.0)
  end
  begin
     id 14 
     name lowerneck
     direction -0.0523929 0.978385 0.200044   
     length 1.63877   
     axis 0 0 0   XYZ
    dof rx ry rz
    limits (-20.0 45.0)
           (-30.0 30.0)
           (-30.0 30.0)
  end
  begin
     id 15 
     name upperneck
     direction 0.0448674 0.981321 -0.187074   
     length 1.69014   
     axis 0 0 0   XYZ
    dof rx ry rz
    limits (-20.0 45.0)
           (-30.0 30.0)
           (-30.0 30.0)
  end
  begin
     id 16
     name head
     direction 0.0199089 0.996118 -0.0857429  
     length 1.70094  
     axis 0 0 0   XYZ
    dof rx ry rz
    limits (-20.0 45.0)
           (-30.0 30.0)
           (-30.0 30.0)
  end
  begin
     id 17 
     name lclavicle
     direction 0.940366 0.30191 -0.156722  
     length 3.37521  
     axis 0 0 0   XYZ
    dof ry rz
    limits (-20.0 10.0)
           (0.0 20.0)
  end
  begin
     id 18 
     name lhumerus
     direction 1 -4.4897e-011 -1.7911e-027   
     length 5.25287   
     axis 180 -30 -90   XYZ
    dof rx ry rz
    limits (-60.0 90.0)
           (-90.0 90.0)
           (-90.0 90.0)
  end
  begin
     id 19
     name lradius
     direction 1 -4.48951e-011 1.04424e-027   
     length 3.51014   
     axis 180 -30 -90   XYZ
    dof rx
    limits (-10.0 170.0)
  end
  begin
     id 20
     name lwrist
     direction 1 -4.48997e-011 -9.5942e-028   
     length 1.75507   
     axis 8.48502e-016 90 90   XYZ
    dof ry
    limits (-180.0 0.0)
 end
  begin
     id 21 
     name lhand
     direction 1 -4.48831e-011 -1.90777e-027   
     length 0.706179   
     axis 1.22306e-015 90 90   XYZ
    dof rx rz
    limits (-90.0 90.0)
           (-45.0 45.0)
  end
  begin
     id 22 
     name lfingers
     direction 1 -4.49108e-011 -3.85244e-027   
     length 0.569339   
     axis 2.44611e-015 90 90   XYZ
    dof rx
    limits (0.0 90.0)
  end
  begin
     id 23
     name lthumb
     direction 0.707107 -6.34953e-011 0.707107   
     length 0.817461   
     axis -90 45 -1.62303e-014   XYZ
    dof rx rz
    limits (-45.0 45.0)
           (-45.0 45.0)
  end
  begin
     id 24 
     name rclavicle
     direction -0.905329 0.382405 -0.184787   
     length 3.30787  
     axis 0 0 0   XYZ 
    dof ry rz
    limits (-10.0 20.0)
           (-20.0 0.0)
  end
  begin
     id 25 
     name rhumerus
     direction -1 -4.48953e-011 -9.15316e-029  
     length 5.28721   
     axis 180 30 90   XYZ
    dof rx ry rz
    limits (-90.0 60.0)
           (-90.0 90.0)
           (-90.0 90.0)
  end
  begin
     id 26 
     name rradius
     direction -1 -4.48987e-011 9.37824e-028   
     length 3.50544   
     axis 180 30 90   XYZ
    dof rx
    limits (-10.0 170.0)
  end
  begin
     id 27 
     name rwrist
     direction -1 -4.48967e-011 -9.58414e-028   
     length 1.75272   
     axis 8.48502e-016 -90 -90   XYZ
    dof ry
    limits (-180.0 0.0)
  end
  begin
     id 28
     name rhand
     direction -1 -4.48904e-011 -1.91266e-027   
     length 0.884996   
     axis 1.22306e-015 -90 -90   XYZ
    dof rx rz
    limits (-90.0 90.0)
           (-45.0 45.0)
  end
  begin
     id 29
     name rfingers
     direction -1 -4.4909e-011 -3.85015e-027   
     length 0.713507   
     axis 2.44611e-015 -90 -90   XYZ
    dof rx
    limits (0.0 90.0)
  end
  begin
     id 30
     name rthumb
     direction -0.707107 -6.34853e-011 0.707107   
     length 1.02446   
     axis -90 -45 1.62303e-014   XYZ
    dof rx rz
    limits (-45.0 45.0)
           (-45.0 45.0)
  end
:hierarchy
  begin
    root lhipjoint rhipjoint lowerback
    lhipjoint lfemur
    lfemur ltibia
    ltibia lfoot
    lfoot ltoes
    rhipjoint rfemur
    rfemur rtibia
    rtibia rfoot
    rfoot rtoes
    lowerback upperback
    upperback thorax
    thorax lowerneck lclavicle rclavicle
    lowerneck upperneck
    upperneck head
    lclavicle lhumerus
    lhumerus lradius
    lradius lwrist
    lwrist lhand lthumb
    lhand lfingers
    rclavicle rhumerus
    rhumerus rradius
    rradius rwrist
    rwrist rhand rthumb
    rhand rfingers
  end

#!OML:ASF F:\twosubjects\two\Thursday\Session 1\justin.ASF
:FULLY-SPECIFIED
:DEGREES
113
root 10.0488 17.9257 -3.06487 7.47643 -24.6175 0.993806
lowerback 8.3122 -1.14105 -4.44166
upperback 3.81575 -1.83049 3.73258
thorax -0.425382 -1.02053 6.55673
lowerneck -20.7072 -1.216 -7.55268
upperneck 18.9891 -0.0811948 3.23216
head 9.41792 -0.227113 2.3533
rclavicle -2.48481e-014 1.82882e-014
rhumerus -17.5512 1.72229 -38.1918
rradius 110.248
rwrist 37.4414
rhand -43.8429 81.9352
rfingers 7.12502
rthumb -16.6699 52.631
lclavicle -2.48481e-014 1.82882e-014
lhumerus -31.5121 -0.301552 78.6665
lradius 58.1435
lwrist -4.65789
lhand -5.82789 33.6262
lfingers 7.12502
lthumb 19.9978 62.6172
rfemur -31.4228 2.52939 17.5889
rtibia 37.5709
rfoot -14.6567 -2.31142
rtoes -8.74446
lfemur -15.1824 6.16151 -20.6312
ltibia 38.9188
lfoot -16.1331 -2.37398
ltoes -24.2627
114
root 10.0038 17.898 -2.98447 7.23664 -24.5273 0.989213
lowerback 8.22636 -1.12266 -4.3684
upperback 3.85115 -1.79868 3.72304
thorax -0.34893 -1.00696 6.49825
lowerneck -20.9011 -1.23724 -7.47372
upperneck 19.3223 -0.0860498 3.08294
head 9.57064 -0.246929 2.29285
rclavicle -2.62396e-014 2.38542e-014
rhumerus -17.5833 2.48937 -38.0866
rradius 110.696
rwrist 37.2937
rhand -44.0303 81.4448
rfingers 7.12502
rthumb -16.8504 52.1559
lclavicle -2.62396e-014 2.38542e-014
lhumerus -31.3643 -0.525769 78.7625
lradius 58.599
lwrist -4.80751
lhand -6.11387 32.6222
lfingers 7.12502
lthumb 19.7229 61.6416
rfemur -30.98 2.64563 17.7386
rtibia 38.2467
rfoot -15.5449 -2.42576
rtoes -7.86612
lfemur -15.1941 6.29458 -20.4817
ltibia 39.9569
lfoot -15.972 -2.78072
ltoes -25.2409
115
root 9.95615 17.8834 -2.90112 6.99608 -24.4655 0.654868
lowerback 8.15327 -1.00794 -4.044
upperback 3.943 -1.62157 3.88752
thorax -0.244083 -0.921969 6.46884
lowerneck -20.5069 -1.33667 -7.69059
upperneck 19.1171 -0.154444 2.93652
head 9.43364 -0.309902 2.26289
rclavicle -4.21423e-014 4.13472e-014
rhumerus -17.517 3.13171 -37.7501
rradius 111.144
rwrist 37.1217
rhand -44.0074 80.7975
rfingers 7.12502
rthumb -16.8283 51.5067
lclavicle -4.21423e-014 4.13472e-014
lhumerus -31.2176 -0.821893 79.1581
lradius 59.0933
lwrist -5.02866
lhand -6.15252 32.8931
lfingers 7.12502
lthumb 19.6857 61.9164
rfemur -30.4473 3.12663 18.1207
rtibia 38.8156
rfoot -16.2948 -2.83847
rtoes -9.63223
lfemur -15.0078 6.45307 -19.938
ltibia 40.9475
lfoot -15.6287 -3.40924
ltoes -24.3571
116
root 9.9059 17.8783 -2.81041 6.65228 -24.4855 0.402526
lowerback 8.08826 -0.844395 -3.73603
upperback 4.04295 -1.38265 3.96275
thorax -0.145193 -0.804531 6.3498
lowerneck -20.1342 -1.37815 -7.64836
upperneck 18.9782 -0.193626 2.65998
head 9.3217 -0.355919 2.15075
rclavicle -1.15295e-014 -1.74931e-014
rhumerus -17.5859 3.60192 -37.6704
rradius 111.569
rwrist 37.1397
rhand -43.8939 79.8642
rfingers 7.12502
rthumb -16.719 50.5642
lclavicle -1.15295e-014 -1.74931e-014
lhumerus -31.067 -1.32028 79.5011
lradius 59.3977
lwrist -5.15159
lhand -6.47524 32.9948
lfingers 7.12502
lthumb 19.3754 62.0495
rfemur -29.8696 3.6897 18.332
rtibia 39.2061
rfoot -16.6093 -3.20337
rtoes -10.8727
lfemur -14.7636 6.67567 -19.4658
ltibia 41.9877
lfoot -15.1929 -4.12354
ltoes -23.4523
117
root 9.85693 17.8695 -2.71978 6.26422 -24.4993 0.418776
lowerback 8.07582 -0.752806 -3.69119
upperback 4.09685 -1.25879 3.93862
thorax -0.101292 -0.744124 6.28786
lowerneck -20.1829 -1.29292 -7.56597
upperneck 19.2481 -0.0704105 2.54256
head 9.41814 -0.312064 2.11653
rclavicle -1.43125e-014 4.77083e-014
rhumerus -17.5432 4.11117 -37.811
rradius 111.851
rwrist 37.2581
rhand -43.9432 79.1149
rfingers 7.12502
rthumb -16.7665 49.8189
lclavicle -1.43125e-014 4.77083e-014
lhumerus -30.9814 -1.44489 79.6873
lradius 59.5692
lwrist -5.32977
lhand -6.73983 32.6658
lfingers 7.12502
lthumb 19.121 61.7458
rfemur -29.3274 4.06137 18.2916
rtibia 39.4439
rfoot -16.87 -3.46155
rtoes -10.8463
lfemur -14.6888 6.97458 -19.3044
ltibia 43.1749
lfoot -14.7999 -4.67593
ltoes -25.2301
118
root 9.81421 17.8581 -2.63924 5.9296 -24.4488 0.541121
lowerback 8.25098 -0.757935 -3.83125
upperback 4.0237 -1.27789 3.91023
thorax -0.268302 -0.748577 6.34547
lowerneck -20.3239 -1.05421 -7.19921
upperneck 19.6894 0.231903 2.22681
head 9.58273 -0.190824 1.9934
rclavicle -9.14409e-015 1.90833e-014
rhumerus -17.4376 4.80669 -37.903
rradius 112.2
rwrist 37.1471
rhand -43.9469 79.0709
rfingers 7.12502
rthumb -16.7701 49.7752
lclavicle -9.14409e-015 1.90833e-014
lhumerus -31.1679 -0.957482 79.7443
lradius 59.9183
lwrist -5.69657
lhand -6.78038 32.3173
lfingers 7.12502
lthumb 19.082 61.4012
rfemur -28.8277 4.1406 18.2357
rtibia 39.6179
rfoot -17.2535 -3.62327
rtoes -11.6826
lfemur -14.8324 7.30044 -19.272
ltibia 44.5841
lfoot -14.2841 -5.11425
ltoes -28.0811
119
root 9.7689 17.8514 -2.56216 5.76841 -24.5123 0.200755
lowerback 8.41569 -0.822798 -3.63093
upperback 4.0517 -1.3541 3.93715
thorax -0.324567 -0.783988 6.26888
lowerneck -20.7907 -0.807462 -6.44808
upperneck 20.1785 0.51934 1.63074
head 9.82949 -0.0809876 1.70828
rclavicle 1.23246e-014 -1.66979e-014
rhumerus -17.1184 5.54318 -38.4101
rradius 112.651
rwrist 37.1197
rhand -43.8224 78.896
rfingers 7.12502
rthumb -16.6502 49.5902
lclavicle 1.23246e-014 -1.66979e-014
lhumerus -31.2063 -0.372295 79.5508
lradius 60.0648
lwrist -5.93928
lhand -6.80764 31.9147
lfingers 7.12502
lthumb 19.0558 61.0012
rfemur -28.2663 4.41086 18.6808
rtibia 39.7555
rfoot -17.6366 -3.84376
rtoes -11.1924
lfemur -15.1375 7.80725 -18.69
ltibia 46.2398
lfoot -13.4379 -5.97151
ltoes -29.2898
